<mxfile host="app.diagrams.net" agent="Mozilla/5.0 (Macintosh; Intel Mac OS X 10_15_7) AppleWebKit/537.36 (KHTML, like Gecko) Chrome/131.0.0.0 Safari/537.36" version="25.0.3">
  <diagram name="Page-1" id="TkWE0fHTsVaH-eZPvvB0">
    <mxGraphModel dx="6210" dy="10095" grid="1" gridSize="10" guides="1" tooltips="1" connect="1" arrows="1" fold="1" page="1" pageScale="1" pageWidth="3000" pageHeight="3000" math="0" shadow="0">
      <root>
        <mxCell id="0" />
        <mxCell id="1" parent="0" />
        <mxCell id="fF7mbrn4zO8QzbYh5B5W-1" value="" style="rounded=0;whiteSpace=wrap;html=1;movable=1;resizable=1;rotatable=1;deletable=1;editable=1;locked=0;connectable=1;" vertex="1" parent="1">
          <mxGeometry x="1100" y="-4660" width="3829" height="6397.5" as="geometry" />
        </mxCell>
        <mxCell id="MKvbwcuUu4q-yP4E661C-5" value="" style="shape=flexArrow;endArrow=classic;html=1;rounded=0;width=42;endWidth=87.27272727272727;endSize=21.577272727272724;strokeWidth=5;sketch=1;curveFitting=1;jiggle=2;flowAnimation=1;dashed=1;" parent="1" edge="1">
          <mxGeometry width="50" height="50" relative="1" as="geometry">
            <mxPoint x="2700" y="-4002.5" as="sourcePoint" />
            <mxPoint x="2700" y="-3852.5" as="targetPoint" />
          </mxGeometry>
        </mxCell>
        <mxCell id="MKvbwcuUu4q-yP4E661C-6" value="" style="shape=flexArrow;endArrow=classic;html=1;rounded=0;width=42;endWidth=87.27272727272727;endSize=21.577272727272724;strokeWidth=5;sketch=1;curveFitting=1;jiggle=2;flowAnimation=1;dashed=1;" parent="1" edge="1">
          <mxGeometry width="50" height="50" relative="1" as="geometry">
            <mxPoint x="3692" y="-4002.5" as="sourcePoint" />
            <mxPoint x="3692" y="-3852.5" as="targetPoint" />
          </mxGeometry>
        </mxCell>
        <mxCell id="MKvbwcuUu4q-yP4E661C-7" value="" style="shape=flexArrow;endArrow=classic;html=1;rounded=0;width=42;endWidth=87.27272727272727;endSize=21.577272727272724;strokeWidth=5;sketch=1;curveFitting=1;jiggle=2;flowAnimation=0;dashed=1;" parent="1" edge="1">
          <mxGeometry width="50" height="50" relative="1" as="geometry">
            <mxPoint x="2003.5" y="-3992.5" as="sourcePoint" />
            <mxPoint x="2003.5" y="-3842.5" as="targetPoint" />
          </mxGeometry>
        </mxCell>
        <mxCell id="MKvbwcuUu4q-yP4E661C-10" value="&lt;font style=&quot;font-size: 35px;&quot;&gt;&lt;b&gt;HTTP requests&lt;/b&gt;&lt;/font&gt;" style="rounded=0;whiteSpace=wrap;html=1;sketch=1;curveFitting=1;jiggle=2;" parent="1" vertex="1">
          <mxGeometry x="1793" y="-4392.5" width="2967" height="170" as="geometry" />
        </mxCell>
        <mxCell id="MKvbwcuUu4q-yP4E661C-13" value="&lt;font style=&quot;font-size: 30px;&quot;&gt;AuthController&lt;/font&gt;" style="rounded=1;whiteSpace=wrap;html=1;sketch=1;curveFitting=1;jiggle=2;fillColor=#fff2cc;strokeColor=#d6b656;" parent="1" vertex="1">
          <mxGeometry x="1825.5" y="-3622.5" width="344.5" height="130" as="geometry" />
        </mxCell>
        <mxCell id="MKvbwcuUu4q-yP4E661C-14" value="&lt;font style=&quot;font-size: 30px;&quot;&gt;AdminController&lt;/font&gt;" style="rounded=1;whiteSpace=wrap;html=1;sketch=1;curveFitting=1;jiggle=2;fillColor=#fff2cc;strokeColor=#d6b656;" parent="1" vertex="1">
          <mxGeometry x="2518" y="-3627.5" width="339" height="120" as="geometry" />
        </mxCell>
        <mxCell id="MKvbwcuUu4q-yP4E661C-15" value="&lt;font style=&quot;font-size: 30px;&quot;&gt;ProfileController&lt;/font&gt;" style="rounded=1;whiteSpace=wrap;html=1;sketch=1;curveFitting=1;jiggle=2;fillColor=#fff2cc;strokeColor=#d6b656;fontSize=26;" parent="1" vertex="1">
          <mxGeometry x="3520" y="-3612.5" width="352" height="120" as="geometry" />
        </mxCell>
        <mxCell id="MKvbwcuUu4q-yP4E661C-16" value="&lt;font style=&quot;font-size: 26px;&quot;&gt;AuthService&lt;/font&gt;" style="rounded=0;whiteSpace=wrap;html=1;sketch=1;curveFitting=1;jiggle=2;fillColor=#dae8fc;strokeColor=#6c8ebf;" parent="1" vertex="1">
          <mxGeometry x="1790.5" y="-1202.5" width="340" height="140" as="geometry" />
        </mxCell>
        <mxCell id="MKvbwcuUu4q-yP4E661C-71" style="edgeStyle=orthogonalEdgeStyle;rounded=0;orthogonalLoop=1;jettySize=auto;html=1;exitX=0.527;exitY=1.009;exitDx=0;exitDy=0;exitPerimeter=0;strokeWidth=5;startArrow=block;startFill=1;dashed=1;flowAnimation=1;entryX=0.511;entryY=0.003;entryDx=0;entryDy=0;entryPerimeter=0;" parent="1" target="MKvbwcuUu4q-yP4E661C-70" edge="1" source="MKvbwcuUu4q-yP4E661C-17">
          <mxGeometry relative="1" as="geometry">
            <mxPoint x="3238.100000000001" y="527.5" as="sourcePoint" />
            <mxPoint x="3240" y="757.5" as="targetPoint" />
            <Array as="points">
              <mxPoint x="3236" y="612.5" />
              <mxPoint x="3238" y="612.5" />
              <mxPoint x="3238" y="768.5" />
            </Array>
          </mxGeometry>
        </mxCell>
        <mxCell id="MKvbwcuUu4q-yP4E661C-17" value="&lt;font style=&quot;font-size: 42px;&quot;&gt;DbContext&lt;/font&gt;" style="shape=cylinder3;whiteSpace=wrap;html=1;boundedLbl=1;backgroundOutline=1;size=15;sketch=1;curveFitting=1;jiggle=2;fillColor=#FF9661;" parent="1" vertex="1">
          <mxGeometry x="2290" y="17.5" width="1795" height="490" as="geometry" />
        </mxCell>
        <mxCell id="MKvbwcuUu4q-yP4E661C-18" value="&lt;span style=&quot;font-size: 26px;&quot;&gt;[POST]: /api/auth/register&lt;/span&gt;" style="rounded=0;whiteSpace=wrap;html=1;sketch=1;curveFitting=1;jiggle=2;fillColor=#fad7ac;strokeColor=#b46504;" parent="1" vertex="1">
          <mxGeometry x="1827" y="-3432.5" width="343" height="70" as="geometry" />
        </mxCell>
        <mxCell id="MKvbwcuUu4q-yP4E661C-21" value="&lt;font style=&quot;font-size: 40px;&quot;&gt;&lt;b&gt;.NET API&lt;/b&gt;&lt;/font&gt;" style="rounded=0;whiteSpace=wrap;html=1;sketch=1;curveFitting=1;jiggle=2;" parent="1" vertex="1">
          <mxGeometry x="1290" y="-4552.5" width="240" height="130" as="geometry" />
        </mxCell>
        <mxCell id="MKvbwcuUu4q-yP4E661C-26" value="&lt;span style=&quot;font-size: 26px;&quot;&gt;[POST]: /api/auth/login&lt;/span&gt;" style="rounded=0;whiteSpace=wrap;html=1;sketch=1;curveFitting=1;jiggle=2;fillColor=#fad7ac;strokeColor=#b46504;" parent="1" vertex="1">
          <mxGeometry x="1827" y="-3302.5" width="303" height="70" as="geometry" />
        </mxCell>
        <mxCell id="MKvbwcuUu4q-yP4E661C-27" value="&lt;span style=&quot;font-size: 26px;&quot;&gt;[GET]: /api/profile/settings&lt;/span&gt;" style="rounded=0;whiteSpace=wrap;html=1;sketch=1;curveFitting=1;jiggle=2;fillColor=#fad7ac;strokeColor=#b46504;" parent="1" vertex="1">
          <mxGeometry x="3520" y="-3432.5" width="325" height="70" as="geometry" />
        </mxCell>
        <mxCell id="MKvbwcuUu4q-yP4E661C-28" value="&lt;span style=&quot;font-size: 26px;&quot;&gt;[PUT]: /api/profile/update&lt;/span&gt;" style="rounded=0;whiteSpace=wrap;html=1;sketch=1;curveFitting=1;jiggle=2;fillColor=#fad7ac;strokeColor=#b46504;" parent="1" vertex="1">
          <mxGeometry x="3520" y="-3312.5" width="325" height="70" as="geometry" />
        </mxCell>
        <mxCell id="MKvbwcuUu4q-yP4E661C-30" value="&lt;font style=&quot;font-size: 26px;&quot;&gt;LoginRequest&lt;/font&gt;" style="rhombus;whiteSpace=wrap;html=1;fillColor=none;sketch=1;curveFitting=1;jiggle=2;" parent="1" vertex="1">
          <mxGeometry x="1808" y="-2355" width="290" height="180" as="geometry" />
        </mxCell>
        <mxCell id="MKvbwcuUu4q-yP4E661C-32" value="&lt;font style=&quot;font-size: 26px;&quot;&gt;RegisterRequest&lt;/font&gt;" style="rhombus;whiteSpace=wrap;html=1;fillColor=none;sketch=1;curveFitting=1;jiggle=2;" parent="1" vertex="1">
          <mxGeometry x="1775.5" y="-2105" width="355" height="200" as="geometry" />
        </mxCell>
        <mxCell id="MKvbwcuUu4q-yP4E661C-33" value="&lt;font style=&quot;font-size: 26px;&quot;&gt;ProfileUpdateRequest&lt;/font&gt;" style="rhombus;whiteSpace=wrap;html=1;fillColor=none;sketch=1;curveFitting=1;jiggle=2;" parent="1" vertex="1">
          <mxGeometry x="3517" y="-2380" width="355" height="200" as="geometry" />
        </mxCell>
        <mxCell id="MKvbwcuUu4q-yP4E661C-34" value="&lt;font style=&quot;font-size: 30px;&quot;&gt;RoleAuthorize: Admin&lt;/font&gt;" style="shape=parallelogram;perimeter=parallelogramPerimeter;whiteSpace=wrap;html=1;fixedSize=1;" parent="1" vertex="1">
          <mxGeometry x="2518" y="-3782.5" width="360" height="70" as="geometry" />
        </mxCell>
        <mxCell id="MKvbwcuUu4q-yP4E661C-35" value="&lt;font style=&quot;font-size: 30px;&quot;&gt;RoleAuthorize: User&lt;/font&gt;" style="shape=parallelogram;perimeter=parallelogramPerimeter;whiteSpace=wrap;html=1;fixedSize=1;" parent="1" vertex="1">
          <mxGeometry x="3520" y="-3782.5" width="362" height="70" as="geometry" />
        </mxCell>
        <mxCell id="MKvbwcuUu4q-yP4E661C-40" value="&lt;span style=&quot;font-size: 26px;&quot;&gt;[DELETE]: /api/profile/delete&lt;/span&gt;" style="rounded=0;whiteSpace=wrap;html=1;sketch=1;curveFitting=1;jiggle=2;fillColor=#fad7ac;strokeColor=#b46504;" parent="1" vertex="1">
          <mxGeometry x="3520" y="-3212.5" width="360" height="70" as="geometry" />
        </mxCell>
        <mxCell id="MKvbwcuUu4q-yP4E661C-48" value="&lt;font style=&quot;font-size: 35px;&quot;&gt;&lt;b&gt;RBAC&lt;/b&gt;&lt;/font&gt;" style="rounded=0;whiteSpace=wrap;html=1;sketch=1;curveFitting=1;jiggle=2;" parent="1" vertex="1">
          <mxGeometry x="1378" y="-3807.5" width="270" height="120" as="geometry" />
        </mxCell>
        <mxCell id="MKvbwcuUu4q-yP4E661C-49" value="&lt;font style=&quot;font-size: 35px;&quot;&gt;&lt;b&gt;Controller&lt;/b&gt;&lt;/font&gt;" style="rounded=0;whiteSpace=wrap;html=1;sketch=1;curveFitting=1;jiggle=2;" parent="1" vertex="1">
          <mxGeometry x="1378" y="-3622.5" width="270" height="120" as="geometry" />
        </mxCell>
        <mxCell id="MKvbwcuUu4q-yP4E661C-50" value="&lt;font style=&quot;font-size: 35px;&quot;&gt;&lt;b&gt;Endpoints&lt;/b&gt;&lt;/font&gt;" style="rounded=0;whiteSpace=wrap;html=1;sketch=1;curveFitting=1;jiggle=2;" parent="1" vertex="1">
          <mxGeometry x="1378" y="-3442.5" width="270" height="120" as="geometry" />
        </mxCell>
        <mxCell id="MKvbwcuUu4q-yP4E661C-51" value="&lt;font style=&quot;font-size: 35px;&quot;&gt;&lt;b&gt;DTOs&lt;/b&gt;&lt;/font&gt;" style="rounded=0;whiteSpace=wrap;html=1;sketch=1;curveFitting=1;jiggle=2;" parent="1" vertex="1">
          <mxGeometry x="1386" y="-2315" width="270" height="120" as="geometry" />
        </mxCell>
        <mxCell id="MKvbwcuUu4q-yP4E661C-52" value="&lt;font style=&quot;font-size: 35px;&quot;&gt;&lt;b&gt;Services&lt;/b&gt;&lt;/font&gt;" style="rounded=0;whiteSpace=wrap;html=1;sketch=1;curveFitting=1;jiggle=2;" parent="1" vertex="1">
          <mxGeometry x="1386" y="-1192.5" width="270" height="120" as="geometry" />
        </mxCell>
        <mxCell id="MKvbwcuUu4q-yP4E661C-56" value="&lt;font style=&quot;font-size: 35px;&quot;&gt;&lt;b&gt;DAL&lt;/b&gt;&lt;/font&gt;" style="rounded=0;whiteSpace=wrap;html=1;sketch=1;curveFitting=1;jiggle=2;" parent="1" vertex="1">
          <mxGeometry x="1386" y="87.5" width="270" height="120" as="geometry" />
        </mxCell>
        <mxCell id="MKvbwcuUu4q-yP4E661C-57" value="&lt;font style=&quot;font-size: 35px;&quot;&gt;&lt;b&gt;Models&lt;/b&gt;&lt;/font&gt;" style="rounded=0;whiteSpace=wrap;html=1;sketch=1;curveFitting=1;jiggle=2;" parent="1" vertex="1">
          <mxGeometry x="1386" y="-907.5" width="270" height="120" as="geometry" />
        </mxCell>
        <mxCell id="MKvbwcuUu4q-yP4E661C-66" value="&lt;div&gt;&lt;br&gt;&lt;/div&gt;&lt;ul&gt;&lt;li&gt;&lt;span style=&quot;font-size: 29px;&quot;&gt;Maps models to tables.&lt;/span&gt;&lt;/li&gt;&lt;li&gt;&lt;span style=&quot;font-size: 29px;&quot;&gt;Maps relationships between models&lt;/span&gt;&lt;/li&gt;&lt;li&gt;&lt;font style=&quot;font-size: 30px;&quot;&gt;Executes database queries (&lt;code&gt;LINQ&lt;/code&gt;, raw SQL)&lt;/font&gt;&lt;/li&gt;&lt;li&gt;&lt;font style=&quot;font-size: 30px;&quot;&gt;&lt;span style=&quot;text-align: center;&quot;&gt;Tracks changes to entities for saving&lt;/span&gt;&lt;/font&gt;&lt;/li&gt;&lt;/ul&gt;" style="text;strokeColor=none;fillColor=none;html=1;whiteSpace=wrap;verticalAlign=middle;overflow=hidden;" parent="1" vertex="1">
          <mxGeometry x="3420" y="297.5" width="650" height="180" as="geometry" />
        </mxCell>
        <mxCell id="MKvbwcuUu4q-yP4E661C-68" value="&lt;font style=&quot;font-size: 30px;&quot;&gt;Freely accessible&lt;/font&gt;" style="shape=parallelogram;perimeter=parallelogramPerimeter;whiteSpace=wrap;html=1;fixedSize=1;" parent="1" vertex="1">
          <mxGeometry x="1825.5" y="-3782.5" width="360" height="70" as="geometry" />
        </mxCell>
        <mxCell id="MKvbwcuUu4q-yP4E661C-69" value="&lt;font style=&quot;font-size: 35px;&quot;&gt;&lt;b&gt;Database&lt;/b&gt;&lt;/font&gt;" style="rounded=0;whiteSpace=wrap;html=1;sketch=1;curveFitting=1;jiggle=2;" parent="1" vertex="1">
          <mxGeometry x="1406" y="787.5" width="270" height="120" as="geometry" />
        </mxCell>
        <mxCell id="MKvbwcuUu4q-yP4E661C-70" value="PostgreSQL" style="shape=cylinder3;whiteSpace=wrap;html=1;boundedLbl=1;backgroundOutline=1;size=15;fontSize=35;fillColor=#ffe6cc;strokeColor=#000000;fillStyle=zigzag-line;" parent="1" vertex="1">
          <mxGeometry x="2466" y="767.5" width="1514" height="320" as="geometry" />
        </mxCell>
        <mxCell id="MKvbwcuUu4q-yP4E661C-73" value="" style="shape=flexArrow;endArrow=classic;html=1;rounded=0;width=42;endWidth=87.27272727272727;endSize=21.577272727272724;strokeWidth=5;sketch=1;curveFitting=1;jiggle=2;flowAnimation=0;fillColor=#FFFFFF;" parent="1" edge="1">
          <mxGeometry width="50" height="50" relative="1" as="geometry">
            <mxPoint x="1946" y="1187.5" as="sourcePoint" />
            <mxPoint x="1946" y="1347.5" as="targetPoint" />
          </mxGeometry>
        </mxCell>
        <mxCell id="MKvbwcuUu4q-yP4E661C-76" value="&lt;font style=&quot;font-size: 28px;&quot;&gt;Response: OK or errror&lt;/font&gt;" style="rounded=0;whiteSpace=wrap;html=1;sketch=1;curveFitting=1;jiggle=2;fillColor=#1C1CFF;" parent="1" vertex="1">
          <mxGeometry x="1756" y="1457.5" width="342" height="80" as="geometry" />
        </mxCell>
        <mxCell id="MKvbwcuUu4q-yP4E661C-77" value="&lt;font style=&quot;font-size: 28px;&quot;&gt;Response: OK or errror&lt;/font&gt;" style="rounded=0;whiteSpace=wrap;html=1;sketch=1;curveFitting=1;jiggle=2;fillColor=#1C1CFF;" parent="1" vertex="1">
          <mxGeometry x="2442.5" y="1467.5" width="342" height="80" as="geometry" />
        </mxCell>
        <mxCell id="MKvbwcuUu4q-yP4E661C-78" value="&lt;font style=&quot;font-size: 28px;&quot;&gt;Response: OK or errror&lt;/font&gt;" style="rounded=0;whiteSpace=wrap;html=1;sketch=1;curveFitting=1;jiggle=2;fillColor=#1C1CFF;" parent="1" vertex="1">
          <mxGeometry x="3430" y="1487.5" width="342" height="80" as="geometry" />
        </mxCell>
        <mxCell id="MKvbwcuUu4q-yP4E661C-81" value="&lt;font style=&quot;font-size: 28px;&quot;&gt;Response: OK or errror&lt;/font&gt;" style="rounded=0;whiteSpace=wrap;html=1;sketch=1;curveFitting=1;jiggle=2;fillColor=#1C1CFF;" parent="1" vertex="1">
          <mxGeometry x="4141.5" y="1477.5" width="342" height="80" as="geometry" />
        </mxCell>
        <mxCell id="MKvbwcuUu4q-yP4E661C-82" value="" style="shape=flexArrow;endArrow=classic;html=1;rounded=0;width=42;endWidth=87.27272727272727;endSize=21.577272727272724;strokeWidth=5;sketch=1;curveFitting=1;jiggle=2;flowAnimation=0;fillColor=#FFFFFF;" parent="1" edge="1">
          <mxGeometry width="50" height="50" relative="1" as="geometry">
            <mxPoint x="2634.5" y="1187.5" as="sourcePoint" />
            <mxPoint x="2635" y="1347.5" as="targetPoint" />
          </mxGeometry>
        </mxCell>
        <mxCell id="MKvbwcuUu4q-yP4E661C-83" value="" style="shape=flexArrow;endArrow=classic;html=1;rounded=0;width=42;endWidth=87.27272727272727;endSize=21.577272727272724;strokeWidth=5;sketch=1;curveFitting=1;jiggle=2;flowAnimation=0;fillColor=#FFFFFF;" parent="1" edge="1">
          <mxGeometry width="50" height="50" relative="1" as="geometry">
            <mxPoint x="4315.5" y="1197.5" as="sourcePoint" />
            <mxPoint x="4316.5" y="1357.5" as="targetPoint" />
          </mxGeometry>
        </mxCell>
        <mxCell id="MKvbwcuUu4q-yP4E661C-84" value="" style="shape=flexArrow;endArrow=classic;html=1;rounded=0;width=42;endWidth=87.27272727272727;endSize=21.577272727272724;strokeWidth=5;sketch=1;curveFitting=1;jiggle=2;flowAnimation=0;fillColor=#FFFFFF;" parent="1" edge="1">
          <mxGeometry width="50" height="50" relative="1" as="geometry">
            <mxPoint x="3620" y="1197.5" as="sourcePoint" />
            <mxPoint x="3621" y="1357.5" as="targetPoint" />
          </mxGeometry>
        </mxCell>
        <mxCell id="MKvbwcuUu4q-yP4E661C-88" style="edgeStyle=orthogonalEdgeStyle;rounded=0;orthogonalLoop=1;jettySize=auto;html=1;exitX=0.5;exitY=1;exitDx=0;exitDy=0;" parent="1" source="MKvbwcuUu4q-yP4E661C-77" target="MKvbwcuUu4q-yP4E661C-77" edge="1">
          <mxGeometry relative="1" as="geometry" />
        </mxCell>
        <mxCell id="MKvbwcuUu4q-yP4E661C-89" value="&lt;font style=&quot;font-size: 35px;&quot;&gt;&lt;b&gt;Response&lt;/b&gt;&lt;/font&gt;" style="rounded=0;whiteSpace=wrap;html=1;sketch=1;curveFitting=1;jiggle=2;" parent="1" vertex="1">
          <mxGeometry x="1406" y="1207.5" width="270" height="120" as="geometry" />
        </mxCell>
        <mxCell id="fF7mbrn4zO8QzbYh5B5W-2" value="&lt;span style=&quot;font-size: 26px;&quot;&gt;[GET]: /api/admin/users&lt;/span&gt;" style="rounded=0;whiteSpace=wrap;html=1;sketch=1;curveFitting=1;jiggle=2;fillColor=#fad7ac;strokeColor=#b46504;" vertex="1" parent="1">
          <mxGeometry x="2518" y="-3422.5" width="325" height="70" as="geometry" />
        </mxCell>
        <mxCell id="fF7mbrn4zO8QzbYh5B5W-3" value="&lt;span style=&quot;font-size: 26px;&quot;&gt;[GET]: /api/admin/users/{userId}&lt;/span&gt;" style="rounded=0;whiteSpace=wrap;html=1;sketch=1;curveFitting=1;jiggle=2;fillColor=#fad7ac;strokeColor=#b46504;" vertex="1" parent="1">
          <mxGeometry x="2518" y="-3317.5" width="399" height="70" as="geometry" />
        </mxCell>
        <mxCell id="fF7mbrn4zO8QzbYh5B5W-4" value="&lt;span style=&quot;font-size: 26px;&quot;&gt;[GET]: /api/admin/application-overview&lt;/span&gt;" style="rounded=0;whiteSpace=wrap;html=1;sketch=1;curveFitting=1;jiggle=2;fillColor=#fad7ac;strokeColor=#b46504;" vertex="1" parent="1">
          <mxGeometry x="2518" y="-3212.5" width="467" height="70" as="geometry" />
        </mxCell>
        <mxCell id="fF7mbrn4zO8QzbYh5B5W-5" value="&lt;span style=&quot;font-size: 26px;&quot;&gt;[POST]: /api/admin/applications/create&lt;/span&gt;" style="rounded=0;whiteSpace=wrap;html=1;sketch=1;curveFitting=1;jiggle=2;fillColor=#fad7ac;strokeColor=#b46504;" vertex="1" parent="1">
          <mxGeometry x="2518" y="-2952.5" width="467" height="70" as="geometry" />
        </mxCell>
        <mxCell id="fF7mbrn4zO8QzbYh5B5W-6" value="&lt;span style=&quot;font-size: 26px;&quot;&gt;[DELETE]: /api/admin/users/{userId}&lt;/span&gt;" style="rounded=0;whiteSpace=wrap;html=1;sketch=1;curveFitting=1;jiggle=2;fillColor=#fad7ac;strokeColor=#b46504;" vertex="1" parent="1">
          <mxGeometry x="2518" y="-2812.5" width="440" height="70" as="geometry" />
        </mxCell>
        <mxCell id="fF7mbrn4zO8QzbYh5B5W-7" value="&lt;span style=&quot;font-size: 26px;&quot;&gt;[DELETE]: /api/admin/applications/{applicationId}/subscriptions/{userId}&lt;/span&gt;" style="rounded=0;whiteSpace=wrap;html=1;sketch=1;curveFitting=1;jiggle=2;fillColor=#fad7ac;strokeColor=#b46504;" vertex="1" parent="1">
          <mxGeometry x="2518" y="-2612.5" width="852" height="70" as="geometry" />
        </mxCell>
        <mxCell id="fF7mbrn4zO8QzbYh5B5W-8" value="&lt;font style=&quot;font-size: 26px;&quot;&gt;UserDto&lt;/font&gt;" style="rhombus;whiteSpace=wrap;html=1;fillColor=none;sketch=1;curveFitting=1;jiggle=2;" vertex="1" parent="1">
          <mxGeometry x="2494.5" y="-2395" width="290" height="230" as="geometry" />
        </mxCell>
        <mxCell id="fF7mbrn4zO8QzbYh5B5W-9" value="&lt;font style=&quot;font-size: 26px;&quot;&gt;ApplicationOverviewDto&lt;/font&gt;" style="rhombus;whiteSpace=wrap;html=1;fillColor=none;sketch=1;curveFitting=1;jiggle=2;" vertex="1" parent="1">
          <mxGeometry x="2857" y="-2082.5" width="373" height="280" as="geometry" />
        </mxCell>
        <mxCell id="fF7mbrn4zO8QzbYh5B5W-10" value="&lt;div&gt;&lt;span style=&quot;font-size: 26px;&quot;&gt;UserSubscriptionDto&lt;/span&gt;&lt;/div&gt;" style="rhombus;whiteSpace=wrap;html=1;fillColor=none;sketch=1;curveFitting=1;jiggle=2;" vertex="1" parent="1">
          <mxGeometry x="2466" y="-2082.5" width="341.5" height="270" as="geometry" />
        </mxCell>
        <mxCell id="fF7mbrn4zO8QzbYh5B5W-11" value="&lt;span style=&quot;font-size: 26px;&quot;&gt;CreateApplicationDto&lt;/span&gt;" style="rhombus;whiteSpace=wrap;html=1;fillColor=none;sketch=1;curveFitting=1;jiggle=2;" vertex="1" parent="1">
          <mxGeometry x="2850" y="-2410" width="374" height="277.5" as="geometry" />
        </mxCell>
        <mxCell id="fF7mbrn4zO8QzbYh5B5W-12" value="&lt;span style=&quot;font-size: 26px;&quot;&gt;SubscribeRequest&lt;/span&gt;" style="rhombus;whiteSpace=wrap;html=1;fillColor=none;sketch=1;curveFitting=1;jiggle=2;" vertex="1" parent="1">
          <mxGeometry x="4133.5" y="-2395" width="403" height="230" as="geometry" />
        </mxCell>
        <mxCell id="fF7mbrn4zO8QzbYh5B5W-13" value="&lt;span style=&quot;font-size: 26px;&quot;&gt;UpdateApplicationDto&lt;/span&gt;" style="rhombus;whiteSpace=wrap;html=1;fillColor=none;sketch=1;curveFitting=1;jiggle=2;" vertex="1" parent="1">
          <mxGeometry x="2623.5" y="-1722.5" width="403" height="260" as="geometry" />
        </mxCell>
        <mxCell id="fF7mbrn4zO8QzbYh5B5W-16" value="&lt;span style=&quot;font-size: 26px;&quot;&gt;[DELETE]: /api/admin/applications/{applicationId}&lt;/span&gt;" style="rounded=0;whiteSpace=wrap;html=1;sketch=1;curveFitting=1;jiggle=2;fillColor=#fad7ac;strokeColor=#b46504;" vertex="1" parent="1">
          <mxGeometry x="2518" y="-2712.5" width="592" height="70" as="geometry" />
        </mxCell>
        <mxCell id="fF7mbrn4zO8QzbYh5B5W-17" value="&lt;span style=&quot;font-size: 26px;&quot;&gt;[PUT]: /api/admin/applications/{applicationId}&lt;/span&gt;" style="rounded=0;whiteSpace=wrap;html=1;sketch=1;curveFitting=1;jiggle=2;fillColor=#fad7ac;strokeColor=#b46504;" vertex="1" parent="1">
          <mxGeometry x="2518" y="-3082.5" width="550" height="70" as="geometry" />
        </mxCell>
        <mxCell id="fF7mbrn4zO8QzbYh5B5W-18" value="" style="shape=flexArrow;endArrow=classic;html=1;rounded=0;width=42;endWidth=87.27272727272727;endSize=21.577272727272724;strokeWidth=5;sketch=1;curveFitting=1;jiggle=2;flowAnimation=1;dashed=1;" edge="1" parent="1">
          <mxGeometry width="50" height="50" relative="1" as="geometry">
            <mxPoint x="4322" y="-4007.5" as="sourcePoint" />
            <mxPoint x="4322" y="-3857.5" as="targetPoint" />
          </mxGeometry>
        </mxCell>
        <mxCell id="fF7mbrn4zO8QzbYh5B5W-19" value="&lt;font style=&quot;font-size: 30px;&quot;&gt;ApplicationsController&lt;/font&gt;" style="rounded=1;whiteSpace=wrap;html=1;sketch=1;curveFitting=1;jiggle=2;fillColor=#fff2cc;strokeColor=#d6b656;fontSize=26;" vertex="1" parent="1">
          <mxGeometry x="4150" y="-3617.5" width="352" height="120" as="geometry" />
        </mxCell>
        <mxCell id="fF7mbrn4zO8QzbYh5B5W-20" value="&lt;span style=&quot;font-size: 26px;&quot;&gt;[GET]: /api/applications&lt;/span&gt;" style="rounded=0;whiteSpace=wrap;html=1;sketch=1;curveFitting=1;jiggle=2;fillColor=#fad7ac;strokeColor=#b46504;" vertex="1" parent="1">
          <mxGeometry x="4150" y="-3437.5" width="325" height="70" as="geometry" />
        </mxCell>
        <mxCell id="fF7mbrn4zO8QzbYh5B5W-21" value="&lt;span style=&quot;font-size: 26px;&quot;&gt;[GET]: /api/applications/user&lt;/span&gt;" style="rounded=0;whiteSpace=wrap;html=1;sketch=1;curveFitting=1;jiggle=2;fillColor=#fad7ac;strokeColor=#b46504;" vertex="1" parent="1">
          <mxGeometry x="4150" y="-3317.5" width="370" height="70" as="geometry" />
        </mxCell>
        <mxCell id="fF7mbrn4zO8QzbYh5B5W-22" value="&lt;font style=&quot;font-size: 30px;&quot;&gt;RoleAuthorize: User&lt;/font&gt;" style="shape=parallelogram;perimeter=parallelogramPerimeter;whiteSpace=wrap;html=1;fixedSize=1;" vertex="1" parent="1">
          <mxGeometry x="4150" y="-3787.5" width="362" height="70" as="geometry" />
        </mxCell>
        <mxCell id="fF7mbrn4zO8QzbYh5B5W-23" value="&lt;span style=&quot;font-size: 26px;&quot;&gt;[POST]:&amp;nbsp;/api/applications/subscribe&lt;/span&gt;" style="rounded=0;whiteSpace=wrap;html=1;sketch=1;curveFitting=1;jiggle=2;fillColor=#fad7ac;strokeColor=#b46504;" vertex="1" parent="1">
          <mxGeometry x="4150" y="-3177.5" width="450" height="70" as="geometry" />
        </mxCell>
        <mxCell id="fF7mbrn4zO8QzbYh5B5W-29" value="&lt;strong&gt;&lt;font style=&quot;font-size: 30px;&quot;&gt;junction table&lt;/font&gt;&lt;/strong&gt; " style="rounded=0;whiteSpace=wrap;html=1;" vertex="1" parent="1">
          <mxGeometry x="3090" y="-282.5" width="380" height="60" as="geometry" />
        </mxCell>
        <mxCell id="fF7mbrn4zO8QzbYh5B5W-36" value="&lt;font style=&quot;font-size: 30px;&quot;&gt;User&lt;/font&gt;" style="swimlane;childLayout=stackLayout;horizontal=1;startSize=50;horizontalStack=0;rounded=1;fontSize=14;fontStyle=0;strokeWidth=2;resizeParent=0;resizeLast=1;shadow=0;dashed=0;align=center;arcSize=4;whiteSpace=wrap;html=1;" vertex="1" parent="1">
          <mxGeometry x="1795" y="-902.5" width="720" height="712.5" as="geometry" />
        </mxCell>
        <mxCell id="fF7mbrn4zO8QzbYh5B5W-37" value="&lt;font style=&quot;&quot;&gt;&lt;span style=&quot;font-size: 30px;&quot;&gt;+&amp;nbsp;public int Id&lt;/span&gt;&lt;br&gt;&lt;span style=&quot;font-size: 30px;&quot;&gt;+&amp;nbsp;public required string Email&amp;nbsp;&lt;/span&gt;&lt;/font&gt;&lt;div&gt;&lt;font style=&quot;&quot;&gt;&lt;span style=&quot;font-size: 30px;&quot;&gt;+&amp;nbsp;public required string PasswordHash&lt;/span&gt;&lt;br&gt;&lt;/font&gt;&lt;div&gt;&lt;span style=&quot;background-color: initial; font-size: 30px;&quot;&gt;+ public required string FirstName&lt;/span&gt;&lt;/div&gt;&lt;div&gt;&lt;span style=&quot;font-size: 30px;&quot;&gt;+&amp;nbsp;&lt;/span&gt;&lt;span style=&quot;background-color: initial; font-size: 30px;&quot;&gt;public required string LastName&lt;/span&gt;&lt;/div&gt;&lt;div&gt;&lt;span style=&quot;background-color: initial; font-size: 30px;&quot;&gt;+&amp;nbsp;&lt;/span&gt;&lt;span style=&quot;background-color: initial; font-size: 30px;&quot;&gt;public required string Country&lt;/span&gt;&lt;/div&gt;&lt;div&gt;&lt;span style=&quot;background-color: initial; font-size: 30px;&quot;&gt;+&amp;nbsp;&lt;/span&gt;&lt;span style=&quot;background-color: initial; font-size: 30px;&quot;&gt;public required string State&lt;/span&gt;&lt;/div&gt;&lt;div&gt;&lt;span style=&quot;background-color: initial; font-size: 30px;&quot;&gt;+&amp;nbsp;&lt;/span&gt;&lt;span style=&quot;background-color: initial; font-size: 30px;&quot;&gt;public required string Company&lt;/span&gt;&lt;/div&gt;&lt;div&gt;&lt;span style=&quot;background-color: initial; font-size: 30px;&quot;&gt;&lt;br&gt;&lt;/span&gt;&lt;/div&gt;&lt;div&gt;&lt;span style=&quot;background-color: initial; font-size: 30px;&quot;&gt;+&amp;nbsp;&lt;/span&gt;&lt;span style=&quot;background-color: initial; font-size: 30px;&quot;&gt;public string? DisplayName&amp;nbsp;&lt;/span&gt;&lt;/div&gt;&lt;div&gt;&lt;span style=&quot;background-color: initial; font-size: 30px;&quot;&gt;+&amp;nbsp;&lt;/span&gt;&lt;span style=&quot;background-color: initial; font-size: 30px;&quot;&gt;public string? PreferredLanguage&lt;/span&gt;&lt;/div&gt;&lt;/div&gt;&lt;div&gt;&lt;span style=&quot;background-color: initial; font-size: 30px;&quot;&gt;+&amp;nbsp;&lt;/span&gt;&lt;span style=&quot;background-color: initial; font-size: 30px;&quot;&gt;public string? Title&lt;/span&gt;&lt;/div&gt;&lt;div&gt;&lt;span style=&quot;background-color: initial; font-size: 30px;&quot;&gt;+&amp;nbsp;&lt;/span&gt;&lt;span style=&quot;background-color: initial; font-size: 30px;&quot;&gt;public string? Address&lt;/span&gt;&lt;/div&gt;&lt;div&gt;&lt;span style=&quot;background-color: initial; font-size: 30px;&quot;&gt;+&amp;nbsp;&lt;/span&gt;&lt;span style=&quot;background-color: initial; font-size: 30px;&quot;&gt;public string? Salt&lt;/span&gt;&lt;/div&gt;&lt;div&gt;&lt;span style=&quot;background-color: initial; font-size: 30px;&quot;&gt;+&amp;nbsp;&lt;/span&gt;&lt;span style=&quot;background-color: initial; font-size: 30px;&quot;&gt;public UserRole Role = &#39;User&#39;&lt;/span&gt;&lt;/div&gt;&lt;div&gt;&lt;span style=&quot;background-color: initial; font-size: 30px;&quot;&gt;&lt;br&gt;&lt;/span&gt;&lt;/div&gt;&lt;div&gt;&lt;span style=&quot;background-color: initial; font-size: 30px;&quot;&gt;+&amp;nbsp;&lt;/span&gt;&lt;span style=&quot;background-color: initial; font-size: 30px;&quot;&gt;public ICollection&amp;lt;Subscription&amp;gt; Subscriptions&amp;nbsp;&lt;/span&gt;&lt;/div&gt;" style="align=left;strokeColor=none;fillColor=none;spacingLeft=4;fontSize=12;verticalAlign=top;resizable=0;rotatable=0;part=1;html=1;" vertex="1" parent="fF7mbrn4zO8QzbYh5B5W-36">
          <mxGeometry y="50" width="720" height="662.5" as="geometry" />
        </mxCell>
        <mxCell id="fF7mbrn4zO8QzbYh5B5W-41" value="&lt;font style=&quot;font-size: 30px;&quot;&gt;Application&lt;/font&gt;" style="swimlane;childLayout=stackLayout;horizontal=1;startSize=50;horizontalStack=0;rounded=1;fontSize=14;fontStyle=0;strokeWidth=2;resizeParent=0;resizeLast=1;shadow=0;dashed=0;align=center;arcSize=4;whiteSpace=wrap;html=1;" vertex="1" parent="1">
          <mxGeometry x="4070" y="-792.5" width="722.5" height="380" as="geometry" />
        </mxCell>
        <mxCell id="fF7mbrn4zO8QzbYh5B5W-42" value="&lt;font style=&quot;&quot;&gt;&lt;span style=&quot;font-size: 30px;&quot;&gt;+&amp;nbsp;public int Id&lt;/span&gt;&lt;br&gt;&lt;span style=&quot;font-size: 30px;&quot;&gt;+&amp;nbsp;public required string Name&lt;/span&gt;&lt;/font&gt;&lt;div&gt;&lt;span style=&quot;font-size: 30px;&quot;&gt;+&amp;nbsp;&lt;/span&gt;&lt;span style=&quot;background-color: initial; font-size: 30px;&quot;&gt;public required string Description&lt;/span&gt;&lt;/div&gt;&lt;div&gt;&lt;span style=&quot;background-color: initial; font-size: 30px;&quot;&gt;+&amp;nbsp;&lt;/span&gt;&lt;span style=&quot;background-color: initial; font-size: 30px;&quot;&gt;public required string IconUrl&lt;/span&gt;&lt;/div&gt;&lt;div&gt;&lt;span style=&quot;background-color: initial; font-size: 30px;&quot;&gt;+&amp;nbsp;&lt;/span&gt;&lt;span style=&quot;background-color: initial; font-size: 30px;&quot;&gt;public required string RoutePath&lt;/span&gt;&lt;/div&gt;&lt;div&gt;&lt;span style=&quot;background-color: initial; font-size: 30px;&quot;&gt;+&amp;nbsp;&lt;/span&gt;&lt;span style=&quot;background-color: initial; font-size: 30px;&quot;&gt;public List&amp;lt;string&amp;gt; Tags&lt;/span&gt;&lt;/div&gt;&lt;div&gt;&lt;span style=&quot;background-color: initial; font-size: 30px;&quot;&gt;&lt;br&gt;&lt;/span&gt;&lt;/div&gt;&lt;div&gt;&lt;span style=&quot;background-color: initial; font-size: 30px;&quot;&gt;+&amp;nbsp;&lt;/span&gt;&lt;span style=&quot;background-color: initial; font-size: 30px;&quot;&gt;public ICollection&amp;lt;Subscription&amp;gt; Subscriptions&amp;nbsp;&lt;/span&gt;&lt;/div&gt;&lt;div&gt;&lt;span style=&quot;background-color: initial; font-size: 30px;&quot;&gt;&lt;br&gt;&lt;/span&gt;&lt;/div&gt;" style="align=left;strokeColor=none;fillColor=none;spacingLeft=4;fontSize=12;verticalAlign=top;resizable=0;rotatable=0;part=1;html=1;" vertex="1" parent="fF7mbrn4zO8QzbYh5B5W-41">
          <mxGeometry y="50" width="722.5" height="330" as="geometry" />
        </mxCell>
        <mxCell id="fF7mbrn4zO8QzbYh5B5W-43" style="edgeStyle=orthogonalEdgeStyle;rounded=0;orthogonalLoop=1;jettySize=auto;html=1;" edge="1" parent="fF7mbrn4zO8QzbYh5B5W-41" source="fF7mbrn4zO8QzbYh5B5W-42" target="fF7mbrn4zO8QzbYh5B5W-42">
          <mxGeometry relative="1" as="geometry" />
        </mxCell>
        <mxCell id="fF7mbrn4zO8QzbYh5B5W-30" value="&lt;font style=&quot;font-size: 30px;&quot;&gt;Subscription&lt;/font&gt;" style="swimlane;childLayout=stackLayout;horizontal=1;startSize=50;horizontalStack=0;rounded=1;fontSize=14;fontStyle=0;strokeWidth=2;resizeParent=0;resizeLast=1;shadow=0;dashed=0;align=center;arcSize=4;whiteSpace=wrap;html=1;" vertex="1" parent="1">
          <mxGeometry x="2930" y="-692.5" width="720" height="340" as="geometry" />
        </mxCell>
        <mxCell id="fF7mbrn4zO8QzbYh5B5W-31" value="&lt;font style=&quot;font-size: 30px;&quot;&gt;+&amp;nbsp;public int Id&lt;br&gt;+&amp;nbsp;public int UserId - &lt;font color=&quot;#0022ff&quot;&gt;foreign key to User&lt;/font&gt;&lt;br&gt;+ public int ApplicationId - &lt;font color=&quot;#0022ff&quot;&gt;foreign key to Application&lt;/font&gt;&lt;/font&gt;&lt;div&gt;&lt;span style=&quot;font-size: 30px;&quot;&gt;+&amp;nbsp;&lt;/span&gt;&lt;span style=&quot;background-color: initial; font-size: 30px;&quot;&gt;public DateTime SubscriptionDate&lt;/span&gt;&lt;/div&gt;&lt;div&gt;&lt;span style=&quot;background-color: initial; font-size: 30px;&quot;&gt;&lt;br&gt;&lt;/span&gt;&lt;/div&gt;&lt;div&gt;&lt;span style=&quot;background-color: initial; font-size: 30px;&quot;&gt;+ public&amp;nbsp;&lt;/span&gt;&lt;span style=&quot;background-color: initial; font-size: 30px;&quot;&gt;User? User&amp;nbsp;&lt;/span&gt;&lt;/div&gt;&lt;div&gt;&lt;span style=&quot;background-color: initial; font-size: 30px;&quot;&gt;+&amp;nbsp;&lt;/span&gt;&lt;span style=&quot;background-color: initial; font-size: 30px;&quot;&gt;public Application? Application&lt;/span&gt;&lt;/div&gt;&lt;div&gt;&lt;br&gt;&lt;/div&gt;" style="align=left;strokeColor=none;fillColor=none;spacingLeft=4;fontSize=12;verticalAlign=top;resizable=0;rotatable=0;part=1;html=1;" vertex="1" parent="fF7mbrn4zO8QzbYh5B5W-30">
          <mxGeometry y="50" width="720" height="290" as="geometry" />
        </mxCell>
        <mxCell id="fF7mbrn4zO8QzbYh5B5W-48" style="edgeStyle=orthogonalEdgeStyle;rounded=0;orthogonalLoop=1;jettySize=auto;html=1;exitX=1;exitY=0.5;exitDx=0;exitDy=0;entryX=0.007;entryY=0.42;entryDx=0;entryDy=0;entryPerimeter=0;strokeWidth=5;" edge="1" parent="1" source="fF7mbrn4zO8QzbYh5B5W-37" target="fF7mbrn4zO8QzbYh5B5W-31">
          <mxGeometry relative="1" as="geometry" />
        </mxCell>
        <mxCell id="fF7mbrn4zO8QzbYh5B5W-50" value="&lt;font style=&quot;font-size: 30px;&quot;&gt;has many&lt;/font&gt;" style="edgeLabel;html=1;align=center;verticalAlign=middle;resizable=0;points=[];" vertex="1" connectable="0" parent="fF7mbrn4zO8QzbYh5B5W-48">
          <mxGeometry x="-0.2272" y="-5" relative="1" as="geometry">
            <mxPoint x="1" y="-11" as="offset" />
          </mxGeometry>
        </mxCell>
        <mxCell id="fF7mbrn4zO8QzbYh5B5W-54" style="edgeStyle=orthogonalEdgeStyle;rounded=0;orthogonalLoop=1;jettySize=auto;html=1;exitX=1;exitY=0.5;exitDx=0;exitDy=0;entryX=0.007;entryY=0.42;entryDx=0;entryDy=0;entryPerimeter=0;strokeWidth=5;endArrow=none;endFill=0;startArrow=block;startFill=1;" edge="1" parent="1">
          <mxGeometry relative="1" as="geometry">
            <mxPoint x="3650" y="-622.5" as="sourcePoint" />
            <mxPoint x="4070" y="-621.5" as="targetPoint" />
          </mxGeometry>
        </mxCell>
        <mxCell id="fF7mbrn4zO8QzbYh5B5W-55" value="&lt;font style=&quot;font-size: 30px;&quot;&gt;has many&lt;/font&gt;" style="edgeLabel;html=1;align=center;verticalAlign=middle;resizable=0;points=[];" vertex="1" connectable="0" parent="fF7mbrn4zO8QzbYh5B5W-54">
          <mxGeometry x="-0.2272" y="-5" relative="1" as="geometry">
            <mxPoint x="1" y="-11" as="offset" />
          </mxGeometry>
        </mxCell>
      </root>
    </mxGraphModel>
  </diagram>
</mxfile>
